<svg xmlns="http://www.w3.org/2000/svg" xml:space="preserve" style="fill:#333;fill-rule:evenodd;clip-rule:evenodd;stroke-linejoin:round;stroke-miterlimit:2" viewBox="0 0 1074 1201"><path d="M943.342 986.901h-.087c0-.727.029-.582.087 0 4.51 1.193 8.993-2.794 13.154-4.918 10.855-5.559 22.205-10.593 31.838-18.102 26.076-20.371 52.733-46.621 55.294-81.777 2.212-30.528-6.024-29.684-6.024-60.329 5.151-.233 9.167-4.86 13.794-7.159 5.559-2.794 16.065-6.46 19.615-12.426 7.8-13.126-8.497-32.362-12.746-42.17-4.395-10.127-7.247-20.866-11.438-31.052-9.109-22.06-20.43-43.246-28.462-65.712-19.09-53.548-27.21-122.87-65.683-168.997-9.313-11.175-21.332-19.848-32.944-28.636-16.937-12.835-53.228-35.01-73.221-43.537-17.083-7.276-38.968-5.297-52.85-17.665-12.514-11.117 2.765-33.439 6.636-42.955 2.997-7.276 3.667-16.501 11.699-20.954 11.96-6.606 14.26 2.387 25.988-4.656 26.512-15.89 46.505-60.97 39.608-91.032-1.746-7.625-16.675 2.678-13.212-9.895 6.14-22.554 19.295-27.588 23.573-52.47 3.9-22.584-1.66-20.576-4.046-29.307-6.955-25.522-.436-26.832-11.175-50.9-19.15-42.867-56.138-75.665-100.519-90.624-10.651-3.58-22.06-4.54-32.944-7.42-3.666-.961-6.897-4.774-10.651-4.133-6.344 1.076-10.942 7.13-17.141 8.876-20.983 5.908-26.338-1.834-46.447 8.614-49.503 25.726-78.023 75.287-90.712 127.933-5.558 23.137-4.161 40.278 3.521 64.229 1.31 4.045-10.68.407-12.63 17.52-2.386 20.924 9.022 22.204 13.213 41.47 4.336 19.964 9.4 36.349 17.432 42.053 7.246 5.18 10.07-7.538 11-.932 1.98 14.26.99 13.708 4.075 27.357 1.28 5.704 9.08 18.334 7.828 26.075-2.794 17.403-46.709 4.802-56.225 5.733-38.764 3.754-79.653 17.869-114.168 34.224-57.593 27.357-130.582 86.638-176.796 117.37-18.247 12.106-31.023 10.39-48.455 24.27 0 0-7.072 6.2-9.313 10.216-8.149 14.609-10.506 11.96-23.776 21.768-22.846 16.938-32.74 22.787-47.466 45.632-5.122 7.974-8.003 17.258-12.95 25.348-11.874 19.412-44.469 63.676-54.975 84.018-18.392 35.563-33.176 72.872-51.103 108.61-5.82 11.64-15.919 21.128-20.139 33.41-6.664 19.323-2.735 46.243 5.093 64.49 20.634 48.222 53.46 86.259 91.847 121.123 18.509 16.821 41.558 36.145 67.458 40.103 10.535.844-1.396-12.892 9.022-14.959 1.775-.349 2.3 2.881 3.842 3.842 14.725 9.225 29.015 17.84 45.457 23.078 42.548 13.532 83.67 15.046 127.846 4.802 28.55-6.636 44.963-16.618 67.75-32.624 8.789-6.14 17.258-12.688 25.756-19.236-2.736 26.337 17.49 53.111 30.411 72.988 8.062 12.397 17.142 24.853 29.54 33.438 5.383 3.725 12.28 4.831 17.78 8.382 10.42 6.693 17.375 20.895 31.227 20.982 47.699.233 271.058-.087 301.994-1.018 48.63-1.484 67.662-95.834 78.634-140.302 3.638-14.725 6.402-29.713 7.974-44.817.698-6.665-.815-13.387-1.251-20.08-.117-1.689-.32-5.734-.437-7.16Zm-609.575 123.423c.437-.088 4.686-.524 6.607-.786 2.91-.378 9.632-1.31 10.098-1.397 11.757-2.62 17.49-4.686 26.629-9.022 24.533-11.67 47.785-22.641 65.101-44.264 5.268-6.577 19.906-29.452 19.324-30.063-.931-.902-4.57-.029-5.791-.29-5.035-.99-9.226-.612-14.348-.612-1.077 0-8.148.262-8.148-.524.785-33.613.203-60.387 1.251-73.716 1.135-14.376 34.079-44.875 46.593-54.45.96.117-1.834-14.405-2.037-15.686-1.397-9.778-3.056-19.237-4.279-29.015-1.775-14.173-6.053-30.237-10.389-43.275-1.455-4.394-2.183-6.693-4.307-14.696-.117-.437-3.201 9.109-5.006 13.62-6.14-4.832-14.289-10.245-21.826-13.242-8.644-3.463-21.594-8.673-29.54-12.66-6.343-3.2-12.018-2.095-15.889-5.966-.844-.814-.727-3.434-1.455-4.656-3.143-5.238-6.17-10.913-9.284-16.093-5.354-8.906-11.96-16.298-17.548-24.679-3.289-4.947-5.82-10.128-9.313-13.62-1.106-1.106-22.845-6.49-28.084-7.363-13.561-2.27-23.805-3.26-37.745-4.074-10.535-.611-40.074 1.426-40.074 1.426s15.86 4.453 11.03 9.05c-3.318 3.173-3.725 3.348-6.17 5.792-6.228 6.228-11.059 10.535-17.636 16.24-7.363 6.402-18.072 20.342-20.633 24.503-2.037 3.347-16.472 5.18-22.787 6.315-11.728 2.125-20.866 4.919-29.83 9.517-4.336 2.212-11.699 7.304-13.474 5.53-1.746-1.747-2.852-13.097-2.852-15.745-2.037 2.124-18.073 17.549-21.536 22.176-13.183 17.607-20.168 27.705-27.152 48.688-3.58 10.768-6.083 26.337-6.083 37.92v20.75s1.514-2.969 2.503-4.278c1.863-2.474 3.522-5.064 5.384-7.538 2.94-3.928 10.768-14.667 12.514-15.016 1.222 3.317 2.183 4.481 2.183 4.481s.582 1.048 1.746 3.405c2.095 4.133 4.074 8.556 6.46 12.514 7.48 12.485 16.647 24.883 25.756 33.992 1.6 1.6 3.405.174 6.082-.699 6.752-2.27 13.707-1.135 20.052-4.307.844-.437 7.625-2.765 8.236-2.154.64.67-6.781 5.18-7.538 5.734-4.627 3.492-8.498 8.73-13.94 11.437-2.357 1.193-7.45 2.415-8.585 4.656-1.6 3.172-.727 9.138-.727 12.892 0 8.586-.728 17.374-.728 25.407 0 3.608.844 9.429-.698 12.514-.64 1.28-1.281 14.842-.728 15.395 1.571 1.542 5.267.262 6.46 1.426.874.873-4.365 6.868-4.656 7.159-2.182 2.182-8.905-4.598-10.04-5.704-.873-.902-5.238.698-6.432.698h-19.673c.408 1.863 1.688 3.754 3.58 6.083 2.27 2.852 4.307 5.733 6.432 8.585 6.984 9.312 15.918 14.493 23.98 22.554 8.818 8.818 20.808 18.683 27.909 25.755 2.794 2.794 2.94 8.324 5.733 11.117 3.9 3.9 10.535 4.86 15.017 7.858 7.188 4.802 17.781 7.217 26.133 9.313 2.27.553 7.596.407 9.662 1.426 1.019.494 2.852 1.804 2.852 1.804s-1.251-4.744-2.502-6.81c-2.852-4.802-5.035-10.768-7.509-15.744-5.18-10.39-11.67-12.689-22.176-19.673-5.093-3.405-8.992-8.847-13.969-11.816-7.886-4.743-13.358-14.056-20.75-18.974-1.251-.844-6.257-5.21-5.005-6.432 2.794-2.823 15.657 5.238 17.898 8.236 3.288 4.394 9.4 6.17 13.241 10.011 9.604 9.633 23.718 21.477 35.418 21.477-.495-.116.844 0 1.862-.232.378-.088 2.328-1.019 2.794-1.223 4.656-1.979 9.138-4.103 13.94-5.704 9.4-3.143 18.538-6.286 27.56-9.312 3.084-1.019 8.41-1.252 10.738-3.58.524-.495-1.426-10.942-1.426-12.165 0-11.495.99-22.467 3.23-33.642.816-4.161 1.718-11.117 8.208-7.886 3.492 1.746 1.076 8.381 1.076 11.815 0 11.495-2.124 22.874-2.124 34.37 0 1.542-.466 7.886.436 14.172 5.384 2.853 11.641 4.046 17.81 5.85 9.11 2.707 17.317 7.945 26.106 11.466 6.111 2.445 15.831 3.667 19.323 7.16.233.203-2.124 6.926-2.502 7.857-2.532 6.432-4.686 10.273-8.964 15.86-1.018 1.34-12.281 8.79-11.059 12.777-.058 0-.058 0 0 0Zm23.486-32.537s5.238-2.328 6.664-2.91c3.929-1.659 8.41-3.318 12.223-5.18 12.136-5.879 24.737-14.231 36.29-21.157 3.23-1.95 9.488-6.461 6.578-10.157-.611-.815-1.688-1.572-4.802-.407-2.823 1.018-7.014 4.074-9.167 5.995-3.813 3.346-7.8 6.548-11.816 9.632-7.043 5.384-13.62 10.972-21.303 15.366-3.346 1.921-14.667 8.818-14.667 8.818Zm3.608-160.76c-3.317 2.444-22.932 18.538-33.205 25.493-10.768 7.276-31.576 18.48-33.671 19.76-1.368-.436-25.872-19.003-38.124-29.218-12.252-10.186-35.243-32.041-35.476-32.041 0 .029 14.522-34.254 20.255-47.262 4.54-10.332 12.63-29.248 14.173-30.79.728-.728 30.79.523 45.37 1.455 14.028.902 41.82 4.54 42.257 4.103-.088.582 6.024 23.37 8.498 34.952 2.386 11.146 7.392 36.436 9.487 47.67 1.979.465 9.604 2.415 12.572 3.259 10.71 3.055 21.187 6.373 30.732 12.106 2.095 1.28 8.09 5.791 7.45 7.043-1.251 2.503-4.423 1.397-6.606.67-5.53-1.834-10.477-4.948-15.86-7.102-4.599-1.833-9.139-3.608-13.65-5.413-1.891-.756-11.699-3.841-14.085-4.627-.03-.03-.058-.03-.117-.058Zm559.548-37.571c1.747-3.842-.552-10.797-1.018-15.162-.844-7.509-4.51-14.26-5.733-21.594-.262-1.6-1.717-2.823-1.98-4.424-1.047-6.17-3.52-14.493-6.169-19.818-1.106-2.212 1.834-8.324 2.183-10.594 1.339-8.003 2.532-15.977 1.339-24.242-.786-5.5-.67-11.146-.67-16.733 0-1.66-.524-4.366 0-5.966.291-.844.67-2.649.67-2.649s.64 1.746.873 2.649c.407 1.63.378 3.55.902 5.063 1.688 5.151 2.503 11.641 3.288 17.2 1.397 9.865 1.135 20.138 3.522 29.742.698 2.852.873 7.101.873 9.924 0 1.106-.466 3.638 0 4.627 1.164 2.328 2.706-.349 5.093.437 3.288 1.106 6.431 1.775 9.894 2.648 1.485.378 3.434-.32 4.628.873 2.386 2.387 1.95 7.887 2.444 11.263.844 5.878 3.114 16.472.437 21.797-1.223 2.474-4.395 4.191-6.606 5.966-2.358 1.892-3.842 5.035-6.17 6.606-1.63 1.077-3.638 1.66-4.86 2.852-.67.67-3.958-.116-3.958-.873l1.018.408Zm-810.176-25.814c.757.204 1.776 0 2.445-.495 1.164-.873 2.27-1.891 3.085-3.084 1.95-2.823 2.735-6.403 3.87-9.517 3.027-8.294 5.093-16.413 7.742-24.795 1.746-5.442 4.569-12.572 4.569-18.422.465-.436-.903.903-1.31 1.397-.873 1.135-1.717 2.27-2.474 3.493-3.492 5.5-3.346 5.442-6.024 11.379-3.667 8.06-6.257 16.471-8.992 24.911-1.223 3.812-3.842 14.9-2.91 15.133Zm239.802-36.32c.699 1.834 3.202 3.406 5.443 4.075 1.979.611 8.177-7.567 9.953-9.487 4.772-5.151 12.193-14.551 14.027-17.403 1.338-2.096.873-7.596-.291-7.45-.786.087-2.707 2.677-3.929 3.84-9.575 9.139-11.088 8.644-19.993 18.48-1.688 1.863-5.588 6.985-5.21 7.946ZM221.55 771.109c-1.455.553-7.042 3.23-5.355 6.054 5.588 9.341 7.16 11.088 13.387 19.993 2.736 3.9 5.326 8.992 10.07 11 .204.088-.03-6.111-1.834-10.156-3.521-7.829-9.429-14.58-13.823-21.943-.873-1.455-2.183-4.337-2.445-4.948Zm101.567-76.16c-1.775-.03-3.085-.233-3.405-.757l3.405.757c4.045.058 10.331-.786 11.903-.99 9.4-1.251 21.244-4.889 27.56-6.111 18.45-3.55 18.043-5.122 35.708-11.466 4.685-1.66 12.718-7.014 18.45-5.093 7.13 2.357 7.45 11.67 10.71 16.995 5.908 9.692 10.07 17.2 12.398 26.745 2.24 9.313 2.357 19.033 4.627 28.317.844 3.434 1.863 6.81 3.143 10.098 1.164 2.91 6.228 6.14 4.133 8.498-1.95 2.183-4.511-3.841-6.14-6.257-1.805-2.677-2.766-4.394-4.454-7.188-3.725-6.257-9.225-10.331-14.9-14.871-3.172-2.532-23.136-17.374-33.7-21.71-17.898-7.363-38.095-9.866-55.353-13.795l-14.085-3.172Zm-55.76-7.014c-.058-.029-.087-.029-.116-.058-1.543-1.571-3.958-3.929-4.686-6.14-1.833-5.443-7.828-12.282-11.291-15.745-1.31-1.31-6.694 2.445-7.538 3.289-5.035 5.005-9.953 10.884-15.075 16.006-2.212 2.212-5.646 4.83-5.646 8.236l.844-1.222s8.294-1.164 10.943-1.601c7.334-1.222 14.958-1.135 22.35-2.357 2.474-.408 5.442.524 7.77-.233.612-.204 1.601-.233 2.445-.175.466.291 1.543.175 1.543.175s-.699-.117-1.543-.175Z"/></svg>