<svg xmlns="http://www.w3.org/2000/svg" viewBox="0 0 70.78 120.65"><path d="M65.8 107.89c.29-2.09.41-4.13.18-6.23-.25-2.31-.75-4.58-.99-6.88-.17-1.63-.1-3.26-.15-4.9-.04-1.19-.1-2.53-.58-3.67.5-1.59 1.13-3.13 1.63-4.71.52-1.64.74-3.28.8-5 .11-3.42-.51-6.82-.6-10.23-.07-2.59-.01-5.23-1.27-7.58-1.26-2.36-3.57-3.77-5.55-5.44-.54-.45-1.13-.94-1.56-1.5-.12-.15-.21-.33-.3-.49v-.03c.01-.04.03-.09.07-.15.04-.05.32-.34.46-.46.69-.6 1.55-1.02 2.36-1.43 1.22-.62 1.21-1.88.6-2.76.97-1.38 1.33-2.9 1.13-4.54 1.12-3.99.13-8.56-2.29-11.96-.03-.04-.06-.08-.09-.11l-.15-.36c.13-.17.25-.36.36-.55 2.16-1.29 2.31-3.7 1.9-5.97-.08-.43-.18-.86-.26-1.3-.02-.09-.06-.37-.07-.42-.02-.2-.04-.41-.05-.61-.06-1.06.01-2.12-.07-3.17-.09-1.18-.31-2.37-.93-3.4-.64-1.06-1.63-1.8-2.72-2.36.02-.21.02-.43-.02-.64.65-.82 1.14-1.7 1.51-2.7.32-.87.5-1.79.64-2.7.09-.55.09-1.04-.2-1.54-.07-.12-.16-.23-.25-.33-.02-.19-.05-.38-.08-.56a6.79 6.79 0 0 0-.83-2.28c-.26-.21-.55-.36-.89-.41-1.36-.16-4.71 6.05-5.79 8.61-1.41.02-6.82.31-9.81 2.19-1.48-1.32-6.56-7.55-8.4-6.42-2 1.23 1.27 12.14 1.27 12.14-1.69 12.26 1.94 15.26 1.86 16.94-.09 2.05-1.63 4.45-2.29 7.74-1.26 6.3-.71 12.52-.71 12.52-4.45 3.54-6.92 11.44-7.98 16.52-1.06 5.08-4.66 8.54-6.71 13.48s-.78 12.56 2.12 24.35c-.68 0-1.3-.06-1.9-.14-1.52.72-2.84 1.72-4.28 2.6-.16.1-.3.22-.43.36-.14-.08-.28-.17-.41-.25-.31-.2-.61-.4-.91-.61-.1-.07-.19-.14-.29-.21l-.03-.03-.36-.36c-.07-.07-.12-.14-.18-.21l-.03-.03a19.96 19.96 0 0 1-1.63-2.7c-2.29-4.44-4.15-9.94-4-14.93.02-.75.04-1.01.15-1.5.06-.27.14-.54.22-.8.14-.46-.01-.08.17-.39.03-.06.17-.25.24-.36-.63-1.78-1.5-2.94-2.98-2.94-4.87 0-5.65 12.07-.14 21.18 4.75 7.85 15.57 12.92 26.19 12.92h29.01s2.59-2.85 5.25-7.67c.48-1.5.81-3.05 1.02-4.59Z" style="fill:#333"/><path d="M30.52 120.15c-10.62 0-21.44-5.07-26.19-12.92-5.51-9.1-4.73-21.18.14-21.18 6.56 0 1.06 22.52 16.66 22.52-2.89-11.79-4.16-19.41-2.12-24.35s5.65-8.4 6.71-13.48 3.53-12.98 7.98-16.52c0 0-.56-6.21.71-12.52.66-3.29 2.19-5.7 2.29-7.74.08-1.68-3.56-4.68-1.86-16.94 0 0-3.27-10.91-1.27-12.14 1.84-1.13 6.92 5.11 8.4 6.42 2.99-1.88 8.4-2.16 9.81-2.19C52.86 6.55 56.2.33 57.57.5c3.34.4 2.48 9.72 2.96 13.13.74 2.02 3.48 9.44 2.52 16.28 1.51 8.27 1.44 16.91 1.67 19.8.33 4.16 4.43 8.05 4.5 18 .03 3.88-.52 11.65-.42 15.53.09 3.58 2.19 8.4 1.27 14.26-2.1 13.4-10.52 22.66-10.52 22.66H30.52Z" style="fill:none;stroke:#333;stroke-miterlimit:10"/></svg>