<svg width="62" height="64" viewBox="0 0 62 64" fill="none" xmlns="http://www.w3.org/2000/svg">
<rect width="62" height="64" fill="#333333"/>
<path d="M4.58518 58.7V33.1H8.04118V58.7H4.58518ZM9.52918 49.884C9.63585 49.916 9.75318 49.9427 9.88118 49.964C10.0092 49.9854 10.1425 49.996 10.2812 49.996C10.8252 49.996 11.2518 49.8574 11.5612 49.58C11.8705 49.3027 12.0358 48.86 12.0572 48.252C12.0998 47.3454 12.1265 46.4174 12.1372 45.468C12.1585 44.5187 12.1692 43.564 12.1692 42.604C12.1692 41.6334 12.1585 40.6894 12.1372 39.772C12.1158 38.844 12.0892 37.9694 12.0572 37.148C12.0358 36.54 11.9025 36.0974 11.6572 35.82C11.4225 35.5427 11.0385 35.404 10.5052 35.404C10.1638 35.404 9.83851 35.4627 9.52918 35.58V33.644C9.79585 33.3774 10.1052 33.1747 10.4572 33.036C10.8198 32.8974 11.2678 32.828 11.8012 32.828C12.9745 32.828 13.8705 33.1854 14.4892 33.9C15.1078 34.604 15.4492 35.7827 15.5132 37.436C15.5345 38.044 15.5505 38.8067 15.5612 39.724C15.5825 40.6307 15.5932 41.5907 15.5932 42.604C15.5932 43.6067 15.5825 44.5827 15.5612 45.532C15.5505 46.4707 15.5345 47.2814 15.5132 47.964C15.4492 49.6067 15.0758 50.7854 14.3932 51.5C13.7212 52.2147 12.7985 52.572 11.6252 52.572C10.7932 52.572 10.0945 52.2894 9.52918 51.724V49.884ZM18.3984 52.3C18.3878 51.8734 18.3771 51.484 18.3664 51.132C18.3664 50.7694 18.3611 50.4334 18.3504 50.124C18.3504 49.8147 18.3504 49.5107 18.3504 49.212C18.3504 48.9134 18.3504 48.6094 18.3504 48.3C18.3611 47.9907 18.3664 47.6547 18.3664 47.292C18.3878 46.0014 18.5584 44.8867 18.8784 43.948C19.2091 43.0094 19.6731 42.1987 20.2704 41.516C20.8784 40.8334 21.6091 40.2307 22.4624 39.708L24.2384 38.588C24.8998 38.1187 25.3264 37.5907 25.5184 37.004C25.7211 36.4067 25.8331 35.8307 25.8544 35.276C25.8971 34.5827 25.9184 33.8894 25.9184 33.196C25.9184 32.5027 25.8971 31.8094 25.8544 31.116C25.8224 30.6147 25.6998 30.22 25.4864 29.932C25.2731 29.644 24.9424 29.452 24.4944 29.356V26.444C26.2011 26.54 27.4118 27.004 28.1264 27.836C28.8518 28.6574 29.2464 29.948 29.3104 31.708C29.3211 31.9747 29.3318 32.2627 29.3424 32.572C29.3531 32.8707 29.3584 33.18 29.3584 33.5C29.3584 33.8094 29.3531 34.1187 29.3424 34.428C29.3424 34.7267 29.3371 35.0094 29.3264 35.276C29.2838 36.3 29.1131 37.196 28.8144 37.964C28.5264 38.7214 28.1051 39.3987 27.5504 39.996C27.0064 40.5934 26.3291 41.1534 25.5184 41.676L23.5344 42.908C23.1184 43.196 22.7878 43.58 22.5424 44.06C22.2971 44.54 22.1211 45.0627 22.0144 45.628C21.9078 46.1934 21.8544 46.748 21.8544 47.292V52.3H18.3984ZM18.3984 35.932C18.3878 35.452 18.3718 34.9614 18.3504 34.46C18.3398 33.9587 18.3344 33.4734 18.3344 33.004C18.3344 32.5347 18.3398 32.108 18.3504 31.724C18.4144 29.9747 18.8091 28.684 19.5344 27.852C20.2598 27.02 21.4171 26.5507 23.0064 26.444V29.372C22.6011 29.4787 22.3024 29.676 22.1104 29.964C21.9184 30.252 21.8171 30.636 21.8064 31.116C21.7851 31.916 21.7744 32.7214 21.7744 33.532C21.7744 34.332 21.7904 35.132 21.8224 35.932H18.3984ZM23.3584 52.3V49.228H29.0864V52.3H23.3584ZM31.9289 52.3V26.7H35.3849V52.3H31.9289ZM36.8729 51.868V49.82C37.0329 49.8734 37.1929 49.916 37.3529 49.948C37.5129 49.98 37.6783 49.996 37.8489 49.996C38.3823 49.996 38.7663 49.8574 39.0009 49.58C39.2463 49.3027 39.3796 48.86 39.4009 48.252C39.4436 47.4627 39.4703 46.6147 39.4809 45.708C39.5023 44.7907 39.5129 43.8467 39.5129 42.876C39.5129 41.8947 39.5023 40.9187 39.4809 39.948C39.4703 38.9774 39.4436 38.044 39.4009 37.148C39.3796 36.54 39.2463 36.0974 39.0009 35.82C38.7663 35.5427 38.3823 35.404 37.8489 35.404C37.5183 35.404 37.1929 35.4627 36.8729 35.58V33.772C37.1609 33.4627 37.4863 33.228 37.8489 33.068C38.2116 32.908 38.6809 32.828 39.2569 32.828C40.4303 32.828 41.3049 33.1854 41.8809 33.9C42.4676 34.604 42.7929 35.7827 42.8569 37.436C42.8783 38.1934 42.8943 39.0307 42.9049 39.948C42.9263 40.8654 42.9369 41.804 42.9369 42.764C42.9369 43.724 42.9263 44.6574 42.9049 45.564C42.8943 46.46 42.8783 47.26 42.8569 47.964C42.7929 49.6067 42.4303 50.7854 41.7689 51.5C41.1183 52.2147 40.2116 52.572 39.0489 52.572C38.5476 52.572 38.1263 52.5134 37.7849 52.396C37.4436 52.2787 37.1396 52.1027 36.8729 51.868ZM49.8542 58.108C48.4782 58.0227 47.4275 57.7507 46.7022 57.292C45.9875 56.8334 45.5662 56.22 45.4382 55.452C45.4062 55.292 45.3848 55.132 45.3742 54.972C45.3635 54.812 45.3688 54.652 45.3902 54.492C45.4542 53.948 45.6515 53.4947 45.9822 53.132C46.3235 52.7694 46.8195 52.5294 47.4702 52.412V51.884C46.2755 51.6494 45.6302 51.0627 45.5342 50.124C45.5022 49.932 45.4862 49.7934 45.4862 49.708C45.4862 49.6227 45.5022 49.4947 45.5342 49.324C45.5768 48.8867 45.7742 48.5027 46.1262 48.172C46.4782 47.8307 46.9368 47.6227 47.5022 47.548V47.02C46.7662 46.6787 46.2168 46.1614 45.8542 45.468C45.5022 44.764 45.2942 43.8467 45.2302 42.716C45.2195 42.2147 45.2088 41.7667 45.1982 41.372C45.1875 40.9667 45.1822 40.5774 45.1822 40.204C45.1822 39.82 45.1875 39.4254 45.1982 39.02C45.2088 38.6147 45.2195 38.1667 45.2302 37.676C45.3368 36.0654 45.7475 34.8814 46.4622 34.124C47.1875 33.3667 48.3182 32.94 49.8542 32.844V35.548C49.4382 35.644 49.1288 35.8307 48.9262 36.108C48.7235 36.3854 48.6115 36.7747 48.5902 37.276C48.5688 37.948 48.5528 38.62 48.5422 39.292C48.5315 39.964 48.5315 40.6254 48.5422 41.276C48.5528 41.916 48.5688 42.5294 48.5902 43.116C48.6115 43.6174 48.7235 44.012 48.9262 44.3C49.1395 44.5774 49.4488 44.764 49.8542 44.86V47.596C49.2888 47.6494 48.8835 47.7614 48.6382 47.932C48.4035 48.1027 48.2862 48.3374 48.2862 48.636C48.2862 48.6574 48.2862 48.6787 48.2862 48.7C48.2862 48.7214 48.2862 48.748 48.2862 48.78C48.2862 49.0787 48.3982 49.3027 48.6222 49.452C48.8568 49.5907 49.2675 49.692 49.8542 49.756V52.204C49.3528 52.2574 48.9422 52.3854 48.6222 52.588C48.3022 52.7907 48.1102 53.1 48.0462 53.516C48.0142 53.6547 47.9982 53.7934 47.9982 53.932C47.9982 54.0707 48.0142 54.2147 48.0462 54.364C48.1102 54.7694 48.3022 55.068 48.6222 55.26C48.9422 55.452 49.3528 55.5747 49.8542 55.628V58.108ZM51.3582 58.108V55.708C52.1048 55.6867 52.6862 55.564 53.1022 55.34C53.5182 55.1267 53.7742 54.78 53.8702 54.3C53.9342 54.1507 53.9608 54.0014 53.9502 53.852C53.9502 53.7134 53.9182 53.5694 53.8542 53.42C53.7582 52.9507 53.5022 52.6254 53.0862 52.444C52.6808 52.2627 52.1048 52.1614 51.3582 52.14V49.82C53.0542 49.884 54.3342 50.204 55.1982 50.78C56.0728 51.3454 56.5902 52.204 56.7502 53.356C56.7715 53.5054 56.7875 53.6814 56.7982 53.884C56.8088 54.0867 56.7928 54.3107 56.7502 54.556C56.5902 55.8254 56.0142 56.7214 55.0222 57.244C54.0302 57.7667 52.8088 58.0547 51.3582 58.108ZM51.3582 47.548V44.86C51.7528 44.764 52.0515 44.5774 52.2542 44.3C52.4675 44.012 52.5848 43.6174 52.6062 43.116C52.6382 42.5294 52.6542 41.916 52.6542 41.276C52.6648 40.6254 52.6648 39.964 52.6542 39.292C52.6542 38.62 52.6382 37.948 52.6062 37.276C52.5848 36.7747 52.4728 36.3854 52.2702 36.108C52.0675 35.8307 51.7635 35.644 51.3582 35.548V32.844C53.2995 32.972 54.6008 33.644 55.2622 34.86H55.7582C55.8222 34.2734 56.0355 33.836 56.3982 33.548C56.7715 33.26 57.2942 33.1107 57.9662 33.1V35.756H57.5662C57.0328 35.756 56.6382 35.916 56.3822 36.236C56.1262 36.556 55.9982 37.0627 55.9982 37.756V38.62C55.9982 39.1427 55.9982 39.6174 55.9982 40.044C56.0088 40.46 56.0088 40.8814 55.9982 41.308C55.9982 41.724 55.9875 42.1934 55.9662 42.716C55.8808 44.316 55.4755 45.5 54.7502 46.268C54.0355 47.0254 52.9048 47.452 51.3582 47.548Z" fill="white"/>
</svg>
