<svg version="1.1" id="Calque_1" xmlns="http://www.w3.org/2000/svg" x="0" y="0" viewBox="0 0 538.7 531.2" style="enable-background:new 0 0 538.7 531.2" xml:space="preserve"><style>.st0{fill:#333333}</style><path class="st0" d="M34.9 385.9v47.5c-10 0-19.8.4-29.6-.2-4.3-.2-6.5-4.1-6.5-8.4-.1-9.9-.2-19.8 0-29.8.1-5.2 3.2-8.7 8.2-8.9 9.1-.5 18.2-.2 27.9-.2zM34.9 450.4v19.7H3c-.4 0-1.1-.1-1.1-.2-.8-4.8-1.9-9.5-1.9-14.3 0-1.7 2.6-4.9 4.1-5 10-.4 20.1-.2 30.8-.2z"/><path class="st0" d="M448.3 433.7c7.3-.1 10.2-3.1 10.2-10.4.1-8.6 0-17.1 0-25.7 0-9.1-2.7-11.7-11.8-11.8h-28v-8.2c10.2 0 19.9.1 29.6 0 7.4-.1 10.1-2.8 10.2-10.3.1-8 0-16 0-24 0-11.5-2-13.5-13.6-13.5H13.1c-1.8 0-3.5-.1-5.3 0-5.6.4-9 3.7-9.1 9.4-.2 9.7-.1 19.5 0 29.2.1 4.6 2.2 8.5 6.9 8.8 9.6.5 19.3.2 29.9.2v-23.6c.7 0 1.4 0 2 .1v177.4c10.2-.5 19.3-.9 29-1.4 0-7.4.1-14.3 0-21.3-.1-4.8 1.3-8.3 5.6-11.3 10.3-7.3 20.1-15.4 30.5-22.6 2.9-2 7-3.5 10.5-3.5 75.6-.2 151.1-.1 226.7-.3 6.3 0 11.1 1.8 15.9 5.6 9.5 7.6 19.4 14.7 29.5 22.3 1.5-6 1.1-10.2-4.2-13.5-6.1-3.9-11.7-8.8-19-14.4h23.6v-20.8H67.8v-16.5h317.6v-48H67.9v-8.2h318.6v-24.6c.8 0 1.5.1 2.3.1v178h28.7V470c11.7 0 23 .1 34.2-.1 1.7 0 4.9-1 5-1.7.4-5.2 1-10.6-.2-15.5-.4-1.5-5.9-2.4-9.2-2.5-9.5-.3-18.9-.1-28.5-.1v-16.5c10.1.1 19.8.2 29.5.1zM67.9 471.3h25.2c-8.9 6.7-16.6 12.5-25.2 19v-19z"/><path class="st0" d="M535.7 523.4c-1.4-1.2-3.6-1.5-4.9-2.8-8.9-8.9-15.9-19.2-20.6-30.9-.7-1.8-1.1-4.3-.4-6 5-11.6 4.7-23.3 2-35.5-1.5-6.6-4.2-13.5-.3-20.4.4-.6-.3-2.2-1-3-8.2-9.3-10.9-20-8.2-32.1.3-1.3-.5-2.9-.9-4.3-.7-2.5-2-5-2.1-7.5-.5-18.3-.4-36.6-1.4-54.9-.5-8.2 2.9-15.2 4.1-22.8.7-4.4.5-9.1-.4-13.4-1-5.3-4.3-10.3-4.5-15.5-1.2-38.9-1.8-77.9-2.6-116.8 0-2 .5-4.1 1.2-6 2.4-6.3 5.2-12.1 2.4-19.3-3.6-9.2-1-13.4 8.8-16.8 2.1-.8 4.3-1.4 8.2-2.6-4.3-2-7.1-3.3-10.3-4.8 2.9-18.1 5.8-36.3 8.9-54.5.2-1.3 2.2-2.6 3.6-3.4 3.2-1.8 6.5-3.2 9.8-4.8-3.2-2.7-5.2-4.5-6.4-5.5-3.1 0-5.6.6-7.5-.1-11-4.3-15.9-13.7-19.2-24.4-1.5-4.8-3.2-9.4-4.8-14.2h-2.1c-1.3 2.7-2.8 5.3-3.8 8.1-2.1 5.7-2.9 12.2-6.1 17.1-3.4 5.1-8.9 9.1-13.9 12.8-1.9 1.4-5.2.8-9 1.2-1 .8-3.1 2.5-5.6 4.5 1.4 1.1 2.7 3 4 3 10.8.5 9.5 9.2 11 15.9.5 2.3.8 4.6 1.1 6.9 2 12.6 4 25.2 6 37.5-3.3 1.5-6 2.7-8.9 4 5.9 3.3 10.9 5.9 15.5 8.8 2.1 1.3 2.7 3.1 1.7 6.3-1.8 5.6-5.2 11.3-1.5 17.8 2 3.5 3.5 7.8 3.5 11.7-.4 33.1-1.3 66.2-1.9 99.3-.2 11.4-.8 22.7-4.9 33.7-1.5 4.2-1 9.4-.4 14 .7 5.6 3.6 11 3.7 16.5.2 17.7-.4 35.4-.9 53.1-.2 5.7 1.1 11.8-3.3 16.7-.4.5-.6 1.5-.4 2.2 3.8 12.4.2 23-7.8 32.6-.6.8-1.2 2.3-.9 3 3.4 7.8.8 15.3-.9 22.8-2.4 11-2.2 21.5 2 32.1.8 2 .9 5.2-.1 7-5.4 9.2-10.9 18.3-17.1 27-2 2.9-6 4.3-8.9 6.7-1.2 1-2.3 2.7-2.3 4.1 0 1 1.6 2.5 2.9 3.1 1.1.5 2.7.3 4 .3h88.2c1 0 2.2.3 2.9-.1 1.5-.9 3.6-2.1 3.8-3.4 0-1.1-1.8-2.8-3.1-4zM500.5 50.6h9.5c-1.4 9.4-2.8 18.5-4.2 27.6-1.4 8.8-2.8 17.6-4.4 26.4-.3 1.7-1.6 3.2-2.5 4.7-.7-.3-1.4-.6-2-.8 1.1-19 2.3-38.1 3.6-57.9zm-22.7 58.6c-1.1-.9-3-1.7-3.2-2.8-3.2-18.4-6.1-36.8-9.2-55.7h9.6c1.2 19 2.5 38 3.7 57-.3.6-.6 1.1-.9 1.5zm10.1-.4c-1.7 0-4.9-1.6-5-2.8-1.5-18.2-2.7-36.5-4-55.3h17.6c-1.2 18.6-2.3 36.9-3.8 55.1-.1 1.2-3.1 3-4.8 3z"/></svg>